<svg xmlns="http://www.w3.org/2000/svg" viewBox="0 0 1315.69 470.71"><defs><style>.cls-1{fill:#8f0001;}</style></defs><title>Ресурс 1фSS</title><g id="Слой_2" data-name="Слой 2"><g id="Layer_1" data-name="Layer 1"><path class="cls-1" d="M96.46,420.88,33.76,289.7V393.35c0,9.81,1.09,15.95,3.26,18.38q4.45,4.95,14.1,4.95h5.79v4.2H0v-4.2H5.79q10.36,0,14.71-6.13,2.66-3.76,2.65-17.2V292.52c0-7.08-.8-12.17-2.41-15.32a13.27,13.27,0,0,0-6.21-5.71Q10,269.18,0,269.19V265H46.9l58.4,121.07L163.15,265h46.16v4.21h-5.66q-10.49,0-14.83,6.12-2.65,3.79-2.65,17.21V393.35c0,9.81,1.12,15.95,3.37,18.38q4.47,4.95,14.11,4.95h5.66v4.2H139.87v-4.2h5.79q10.49,0,14.71-6.13,2.64-3.76,2.65-17.2V289.7l-62.7,131.18Z"/><path class="cls-1" d="M301.41,416.68v4.2H232v-4.2h5.73q10,0,14.55-5.63,2.88-3.68,2.87-17.7V292.52q0-11.83-1.55-15.64a10.73,10.73,0,0,0-4.89-4.94,23.42,23.42,0,0,0-11-2.75H232V265h69.45v4.21H295.6q-9.87,0-14.37,5.63-3,3.68-3,17.7V393.35q0,11.83,1.54,15.63a10.46,10.46,0,0,0,5,4.94,22.44,22.44,0,0,0,10.82,2.76Z"/><path class="cls-1" d="M461.66,377.94l3.86.8-14,42.14H326.14v-4.2h6q10.21,0,14.61-6.4c1.67-2.44,2.5-8.07,2.5-16.93V292.52q0-14.59-3.33-18.28-4.63-5-13.78-5.05h-6V265h73.3v4.21q-12.85-.12-18,2.27t-7.09,6c-1.26,2.42-1.89,8.23-1.89,17.39V393.2q0,9.57,1.91,13.15a8.43,8.43,0,0,0,4.42,3.57c2,.78,8.21,1.15,18.66,1.15h11.84q18.64,0,26.19-2.62a34.26,34.26,0,0,0,13.76-9.35Q455.43,392.4,461.66,377.94Z"/><path class="cls-1" d="M578.79,369.07H516.11l-10.89,24.24q-4.07,9.09-4.07,13.58c0,2.38,1.18,4.48,3.53,6.28s7.44,3,15.26,3.51v4.2H468.65v-4.2q10.16-1.73,13.15-4.51,6.09-5.54,13.52-22.52l57.51-127.94h5.61l54.81,129.43q6.82,15.64,12.39,20.3t15.49,5.24v4.2H576.49v-4.2c6.45-.3,10.82-1.34,13.09-3.08a7.85,7.85,0,0,0,3.42-6.41c0-3.34-1.6-8.65-4.78-15.87Zm-3.55-8.4-26.85-62.94-28.5,62.94Z"/><path class="cls-1" d="M862.79,416.68v4.2H793.34v-4.2h5.73q10,0,14.56-5.63,2.85-3.68,2.86-17.7V292.52c0-7.89-.51-13.11-1.56-15.64a10.58,10.58,0,0,0-4.89-4.94,23.36,23.36,0,0,0-11-2.75h-5.73V265h69.45v4.21H857q-9.86,0-14.37,5.63-3,3.68-3,17.7V393.35q0,11.83,1.54,15.63a10.35,10.35,0,0,0,5,4.94A22.37,22.37,0,0,0,857,416.68Z"/><path class="cls-1" d="M1011,265l1.45,36.56h-4.54q-1.32-9.65-3.58-13.79a23.54,23.54,0,0,0-9.85-9.8c-4.1-2.1-9.48-3.17-16.16-3.17H955.52V393.35c0,9.81,1.09,15.95,3.26,18.38q4.61,4.95,14.19,4.95h5.69v4.2H909.21v-4.2H915c6.92,0,11.81-2,14.72-6.13q2.64-3.76,2.65-17.2V274.78H912.92c-7.55,0-12.91.55-16.09,1.61a21.93,21.93,0,0,0-10.62,8.38Q881.8,291,881,301.54h-4.54L877.87,265Z"/><path class="cls-1" d="M1134.19,261.71v53.21h-4.33q-2.16-15.21-7.74-24.24a39.31,39.31,0,0,0-15.91-14.32,46.13,46.13,0,0,0-21.36-5.31q-12.46,0-20.63,7.27t-8.15,16.54a19.14,19.14,0,0,0,5.14,12.94q7.43,8.58,35.33,22.89,22.73,11.67,31,17.91a44.17,44.17,0,0,1,12.77,14.7A37.45,37.45,0,0,1,1144.8,381q0,17.6-14.29,30.37t-36.77,12.75a80.76,80.76,0,0,1-13.26-1,144.32,144.32,0,0,1-15.37-4.19c-7.79-2.43-12.7-3.65-14.78-3.65a6.39,6.39,0,0,0-4.71,1.74c-1.17,1.15-2,3.54-2.58,7.14h-4.34V370.94H1043q3.12,16.74,8.38,25t16.09,13.81a51.79,51.79,0,0,0,23.76,5.49q15,0,23.63-7.58t8.69-18a23.64,23.64,0,0,0-3.27-11.6,35.32,35.32,0,0,0-10.15-10.95q-4.64-3.44-25.55-14.44T1055,335.07a48.6,48.6,0,0,1-13.22-14.7,35.42,35.42,0,0,1-4.51-17.68q0-16.76,13.4-28.86t34.11-12.12q12.9,0,27.39,6,6.69,2.83,9.45,2.84a7.32,7.32,0,0,0,5.08-1.76c1.32-1.18,2.38-3.53,3.18-7.11Z"/><path class="cls-1" d="M1253.36,369.07h-62.69l-10.89,24.24q-4.07,9.09-4.06,13.58c0,2.38,1.17,4.48,3.52,6.28s7.44,3,15.26,3.51v4.2h-51.3v-4.2c6.78-1.15,11.16-2.65,13.17-4.51q6.09-5.54,13.51-22.52l57.52-127.94H1233l54.81,129.43q6.83,15.64,12.38,20.3t15.49,5.24v4.2h-64.63v-4.2c6.45-.3,10.81-1.34,13.08-3.08a7.82,7.82,0,0,0,3.42-6.41c0-3.34-1.6-8.65-4.78-15.87Zm-3.56-8.4L1223,297.73l-28.51,62.94Z"/><path class="cls-1" d="M799.17,210.27,705.85,470.71H702L577,205.75a122.78,122.78,0,0,0-16.21-26.89c-3.85-4.76-9.93-8.44-15.55-11.12s-12.28-3.92-21.83-4.69v-5.79H644l0,5.79c-14.48,1.37-22.2,5-26.51,8.52S610,180.93,610,186.41c0,7.59,3.34,20.59,10.42,36.7l88.06,198.37,85.45-241.55Z"/><polygon class="cls-1" points="662.67 140.03 795.79 128.83 755.28 78.42 813.15 116.22 823.28 0 837.75 116.22 902.86 75.61 853.67 127.42 1122.78 134.43 840.65 149.83 826.17 235.24 813.15 158.23 735.02 196.03 795.79 147.02 662.67 140.03"/></g></g></svg>